<svg width="43" height="28" viewBox="0 0 43 28" fill="none" xmlns="http://www.w3.org/2000/svg">
<path d="M25.6947 0.170799C23.7034 0.548469 21.197 1.33814 18.313 2.53982C16.459 3.29516 14.3303 3.91316 12.8883 4.0505C11.5836 4.18783 10.3476 4.49684 10.1759 4.6685C9.52361 5.32084 10.1759 6.07618 11.515 6.17918C12.648 6.28218 12.8196 6.41952 12.9226 7.17486C13.0256 7.96453 12.8883 8.10187 11.721 8.27353C11 8.41087 9.69528 8.51387 8.83694 8.51387C7.22325 8.51387 5.84991 9.16621 6.22758 9.78421C6.36491 9.99022 7.25759 10.2305 8.21893 10.2992C9.35194 10.4022 10.2103 10.7112 10.6566 11.1919L11.3433 11.8786L10.4163 12.4966C9.66094 12.9772 8.4936 13.1489 4.78557 13.3206C0.768534 13.4579 0.116196 13.5609 0.0131947 14.0759C-0.12414 14.7283 0.734201 14.8656 6.22758 15.2089C9.62661 15.4149 11.618 16.0329 12.6136 17.2346C13.8153 18.6766 11.3433 20.5306 8.11593 20.5306C6.12458 20.5306 5.64391 20.771 5.95291 21.6293C6.12458 22.007 6.98292 22.11 9.83261 22.11C14.3646 22.0757 16.1843 22.3847 16.0127 23.2087C15.944 23.6207 15.326 23.8953 14.0213 24.17C12.7166 24.4103 12.0986 24.685 12.03 25.097C11.927 25.612 12.3046 25.6807 15.223 25.6807C18.313 25.6807 20.9567 26.0927 24.8021 27.26C27.0681 27.9124 28.4414 27.878 30.5701 27.0197C32.6988 26.1957 34.2781 24.8223 34.2781 23.8267C34.2781 22.5907 33.0765 21.08 31.0851 19.7066L29.1624 18.3676L27.5488 19.7066C24.5961 22.213 23.9094 22.3847 22.2957 21.0113C21.1284 20.05 20.9224 18.814 21.7464 18.1273C22.021 17.8869 22.2614 17.5093 22.2614 17.2346C22.2614 16.9943 22.4674 16.6509 22.7421 16.5136C22.9824 16.3763 23.3944 15.8956 23.6004 15.4493C24.0811 14.5566 24.1154 14.5909 21.6777 12.0159C19.755 9.99021 19.6177 8.37654 21.2657 6.96886C21.8837 6.48819 22.5704 6.14485 22.8451 6.24785C23.1197 6.38519 23.4631 6.45385 23.6004 6.45385C23.8751 6.45385 24.8021 7.24353 26.9994 9.33788L28.1324 10.4022L29.5744 8.82287C31.0508 7.17486 32.1151 6.45385 33.0421 6.45385C33.9005 6.45385 35.6515 8.17053 35.6515 9.02887C35.6515 9.85288 34.7932 11.7069 34.0035 12.5652C32.7331 13.9729 32.7675 14.3506 34.4498 15.9299C36.0635 17.4063 37.7115 18.0586 38.9819 17.6466C40.4239 17.1659 42.8616 12.4279 42.8616 10.0245C42.8616 7.38086 40.0119 3.70716 36.6472 1.95615C33.6601 0.445468 28.7161 -0.378539 25.6947 0.170799Z" fill="white"/>
<path d="M5.8155 4.53112C5.12883 5.35513 5.6095 6.17913 6.70817 6.0418C7.46351 5.97313 7.66951 5.76713 7.66951 5.08046C7.66951 4.05045 6.46784 3.70711 5.8155 4.53112Z" fill="white"/>
<path d="M5.95288 17.7839C5.81555 18.0242 5.84988 18.3332 6.05588 18.5392C6.53656 19.0199 8.28757 18.5735 8.08157 18.0242C7.9099 17.4749 6.26189 17.3032 5.95288 17.7839Z" fill="white"/>
<path d="M2.1418 21.0456C1.90147 21.6636 2.2448 22.2473 2.86281 22.2473C3.37781 22.2473 3.82415 21.3203 3.51515 20.8396C3.24048 20.359 2.3478 20.462 2.1418 21.0456Z" fill="white"/>
</svg>
