<svg width="132" height="31" viewBox="0 0 132 31" fill="none" xmlns="http://www.w3.org/2000/svg">
<path d="M59.5898 21.9688L57.2695 18.5586L54.8906 21.9688C54.5469 22.4453 54.2539 22.7852 54.0117 22.9883C53.7773 23.1914 53.4766 23.293 53.1094 23.293C52.7031 23.293 52.3555 23.168 52.0664 22.918C51.7852 22.6602 51.6445 22.3672 51.6445 22.0391C51.6445 21.7031 51.8633 21.2227 52.3008 20.5977L55.1953 16.4492L52.6289 12.9922C52.1836 12.4219 51.9609 11.9258 51.9609 11.5039C51.9609 11.1758 52.0938 10.8906 52.3594 10.6484C52.625 10.4062 52.9727 10.2852 53.4023 10.2852C53.7773 10.2852 54.0859 10.3906 54.3281 10.6016C54.5781 10.8125 54.8672 11.1445 55.1953 11.5977L57.2695 14.4336L59.2852 11.5977C59.6211 11.1289 59.9102 10.793 60.1523 10.5898C60.4023 10.3867 60.7109 10.2852 61.0781 10.2852C61.5 10.2852 61.8477 10.4062 62.1211 10.6484C62.4023 10.8828 62.543 11.168 62.543 11.5039C62.543 11.7461 62.4844 11.9805 62.3672 12.207C62.2578 12.4258 62.0859 12.6875 61.8516 12.9922L59.2852 16.4492L62.1797 20.5977C62.6328 21.2461 62.8594 21.7344 62.8594 22.0625C62.8594 22.3984 62.7188 22.6875 62.4375 22.9297C62.1562 23.1719 61.8086 23.293 61.3945 23.293C61.0273 23.293 60.7148 23.1875 60.457 22.9766C60.207 22.7656 59.918 22.4297 59.5898 21.9688ZM65.3438 10.5664H65.6953V8.64453C65.6953 8.12891 65.707 7.72656 65.7305 7.4375C65.7617 7.14063 65.8398 6.88672 65.9648 6.67578C66.0898 6.45703 66.2695 6.28125 66.5039 6.14844C66.7383 6.00781 67 5.9375 67.2891 5.9375C67.6953 5.9375 68.0625 6.08984 68.3906 6.39453C68.6094 6.59766 68.7461 6.84766 68.8008 7.14453C68.8633 7.43359 68.8945 7.84766 68.8945 8.38672V10.5664H70.0664C70.5195 10.5664 70.8633 10.6758 71.0977 10.8945C71.3398 11.1055 71.4609 11.3789 71.4609 11.7148C71.4609 12.1445 71.2891 12.4453 70.9453 12.6172C70.6094 12.7891 70.125 12.875 69.4922 12.875H68.8945V18.7578C68.8945 19.2578 68.9102 19.6445 68.9414 19.918C68.9805 20.1836 69.0742 20.4023 69.2227 20.5742C69.3789 20.7383 69.6289 20.8203 69.9727 20.8203C70.1602 20.8203 70.4141 20.7891 70.7344 20.7266C71.0547 20.6562 71.3047 20.6211 71.4844 20.6211C71.7422 20.6211 71.9727 20.7266 72.1758 20.9375C72.3867 21.1406 72.4922 21.3945 72.4922 21.6992C72.4922 22.2148 72.2109 22.6094 71.6484 22.8828C71.0859 23.1562 70.2773 23.293 69.2227 23.293C68.2227 23.293 67.4648 23.125 66.9492 22.7891C66.4336 22.4531 66.0938 21.9883 65.9297 21.3945C65.7734 20.8008 65.6953 20.0078 65.6953 19.0156V12.875H65.2734C64.8125 12.875 64.4609 12.7656 64.2188 12.5469C63.9766 12.3281 63.8555 12.0508 63.8555 11.7148C63.8555 11.3789 63.9805 11.1055 64.2305 10.8945C64.4883 10.6758 64.8594 10.5664 65.3438 10.5664ZM76.8516 18.6758V21.3477C76.8516 21.9961 76.6992 22.4844 76.3945 22.8125C76.0898 23.1328 75.7031 23.293 75.2344 23.293C74.7734 23.293 74.3945 23.1289 74.0977 22.8008C73.8008 22.4727 73.6523 21.9883 73.6523 21.3477V12.4414C73.6523 11.0039 74.1719 10.2852 75.2109 10.2852C75.7422 10.2852 76.125 10.4531 76.3594 10.7891C76.5938 11.125 76.7227 11.6211 76.7461 12.2773C77.1289 11.6211 77.5195 11.125 77.918 10.7891C78.3242 10.4531 78.8633 10.2852 79.5352 10.2852C80.207 10.2852 80.8594 10.4531 81.4922 10.7891C82.125 11.125 82.4414 11.5703 82.4414 12.125C82.4414 12.5156 82.3047 12.8398 82.0312 13.0977C81.7656 13.3477 81.4766 13.4727 81.1641 13.4727C81.0469 13.4727 80.7617 13.4023 80.3086 13.2617C79.8633 13.1133 79.4688 13.0391 79.125 13.0391C78.6562 13.0391 78.2734 13.1641 77.9766 13.4141C77.6797 13.6562 77.4492 14.0195 77.2852 14.5039C77.1211 14.9883 77.0078 15.5664 76.9453 16.2383C76.8828 16.9023 76.8516 17.7148 76.8516 18.6758ZM92.5195 17.5742H86.2617C86.2695 18.3008 86.4141 18.9414 86.6953 19.4961C86.9844 20.0508 87.3633 20.4688 87.832 20.75C88.3086 21.0312 88.832 21.1719 89.4023 21.1719C89.7852 21.1719 90.1328 21.1289 90.4453 21.043C90.7656 20.9492 91.0742 20.8086 91.3711 20.6211C91.668 20.4258 91.9414 20.2188 92.1914 20C92.4414 19.7812 92.7656 19.4844 93.1641 19.1094C93.3281 18.9688 93.5625 18.8984 93.8672 18.8984C94.1953 18.8984 94.4609 18.9883 94.6641 19.168C94.8672 19.3477 94.9688 19.6016 94.9688 19.9297C94.9688 20.2188 94.8555 20.5586 94.6289 20.9492C94.4023 21.332 94.0586 21.7031 93.5977 22.0625C93.1445 22.4141 92.5703 22.707 91.875 22.9414C91.1875 23.1758 90.3945 23.293 89.4961 23.293C87.4414 23.293 85.8438 22.707 84.7031 21.5352C83.5625 20.3633 82.9922 18.7734 82.9922 16.7656C82.9922 15.8203 83.1328 14.9453 83.4141 14.1406C83.6953 13.3281 84.1055 12.6328 84.6445 12.0547C85.1836 11.4766 85.8477 11.0352 86.6367 10.7305C87.4258 10.418 88.3008 10.2617 89.2617 10.2617C90.5117 10.2617 91.582 10.5273 92.4727 11.0586C93.3711 11.582 94.043 12.2617 94.4883 13.0977C94.9336 13.9336 95.1562 14.7852 95.1562 15.6523C95.1562 16.457 94.9258 16.9805 94.4648 17.2227C94.0039 17.457 93.3555 17.5742 92.5195 17.5742ZM86.2617 15.7578H92.0625C91.9844 14.6641 91.6875 13.8477 91.1719 13.3086C90.6641 12.7617 89.9922 12.4883 89.1562 12.4883C88.3594 12.4883 87.7031 12.7656 87.1875 13.3203C86.6797 13.8672 86.3711 14.6797 86.2617 15.7578ZM108.504 17.0234V21.2773C108.504 21.9492 108.352 22.4531 108.047 22.7891C107.742 23.125 107.34 23.293 106.84 23.293C106.355 23.293 105.961 23.125 105.656 22.7891C105.359 22.4531 105.211 21.9492 105.211 21.2773V16.1797C105.211 15.375 105.184 14.75 105.129 14.3047C105.074 13.8594 104.926 13.4961 104.684 13.2148C104.441 12.9258 104.059 12.7812 103.535 12.7812C102.488 12.7812 101.797 13.1406 101.461 13.8594C101.133 14.5781 100.969 15.6094 100.969 16.9531V21.2773C100.969 21.9414 100.816 22.4453 100.512 22.7891C100.215 23.125 99.8203 23.293 99.3281 23.293C98.8438 23.293 98.4453 23.125 98.1328 22.7891C97.8281 22.4453 97.6758 21.9414 97.6758 21.2773V12.125C97.6758 11.5234 97.8125 11.0664 98.0859 10.7539C98.3672 10.4414 98.7344 10.2852 99.1875 10.2852C99.625 10.2852 99.9883 10.4336 100.277 10.7305C100.574 11.0195 100.723 11.4219 100.723 11.9375V12.2422C101.277 11.5781 101.871 11.0898 102.504 10.7773C103.137 10.4648 103.84 10.3086 104.613 10.3086C105.418 10.3086 106.109 10.4688 106.688 10.7891C107.266 11.1094 107.742 11.5938 108.117 12.2422C108.656 11.5859 109.234 11.1016 109.852 10.7891C110.469 10.4688 111.152 10.3086 111.902 10.3086C112.777 10.3086 113.531 10.4805 114.164 10.8242C114.797 11.168 115.27 11.6602 115.582 12.3008C115.855 12.8789 115.992 13.7891 115.992 15.0312V21.2773C115.992 21.9492 115.84 22.4531 115.535 22.7891C115.23 23.125 114.828 23.293 114.328 23.293C113.844 23.293 113.445 23.125 113.133 22.7891C112.828 22.4453 112.676 21.9414 112.676 21.2773V15.8984C112.676 15.2109 112.645 14.6602 112.582 14.2461C112.527 13.832 112.371 13.4844 112.113 13.2031C111.855 12.9219 111.465 12.7812 110.941 12.7812C110.52 12.7812 110.117 12.9062 109.734 13.1562C109.359 13.4062 109.066 13.7422 108.855 14.1641C108.621 14.7031 108.504 15.6562 108.504 17.0234ZM128.027 17.5742H121.77C121.777 18.3008 121.922 18.9414 122.203 19.4961C122.492 20.0508 122.871 20.4688 123.34 20.75C123.816 21.0312 124.34 21.1719 124.91 21.1719C125.293 21.1719 125.641 21.1289 125.953 21.043C126.273 20.9492 126.582 20.8086 126.879 20.6211C127.176 20.4258 127.449 20.2188 127.699 20C127.949 19.7812 128.273 19.4844 128.672 19.1094C128.836 18.9688 129.07 18.8984 129.375 18.8984C129.703 18.8984 129.969 18.9883 130.172 19.168C130.375 19.3477 130.477 19.6016 130.477 19.9297C130.477 20.2188 130.363 20.5586 130.137 20.9492C129.91 21.332 129.566 21.7031 129.105 22.0625C128.652 22.4141 128.078 22.707 127.383 22.9414C126.695 23.1758 125.902 23.293 125.004 23.293C122.949 23.293 121.352 22.707 120.211 21.5352C119.07 20.3633 118.5 18.7734 118.5 16.7656C118.5 15.8203 118.641 14.9453 118.922 14.1406C119.203 13.3281 119.613 12.6328 120.152 12.0547C120.691 11.4766 121.355 11.0352 122.145 10.7305C122.934 10.418 123.809 10.2617 124.77 10.2617C126.02 10.2617 127.09 10.5273 127.98 11.0586C128.879 11.582 129.551 12.2617 129.996 13.0977C130.441 13.9336 130.664 14.7852 130.664 15.6523C130.664 16.457 130.434 16.9805 129.973 17.2227C129.512 17.457 128.863 17.5742 128.027 17.5742ZM121.77 15.7578H127.57C127.492 14.6641 127.195 13.8477 126.68 13.3086C126.172 12.7617 125.5 12.4883 124.664 12.4883C123.867 12.4883 123.211 12.7656 122.695 13.3203C122.188 13.8672 121.879 14.6797 121.77 15.7578Z" fill="#18232F"/>
<path d="M25.6947 3.1708C23.7034 3.54847 21.197 4.33814 18.313 5.53982C16.459 6.29516 14.3303 6.91316 12.8883 7.0505C11.5836 7.18783 10.3476 7.49684 10.1759 7.6685C9.52361 8.32084 10.1759 9.07618 11.515 9.17918C12.648 9.28218 12.8196 9.41952 12.9226 10.1749C13.0256 10.9645 12.8883 11.1019 11.721 11.2735C11 11.4109 9.69528 11.5139 8.83694 11.5139C7.22325 11.5139 5.84991 12.1662 6.22758 12.7842C6.36491 12.9902 7.25759 13.2305 8.21893 13.2992C9.35194 13.4022 10.2103 13.7112 10.6566 14.1919L11.3433 14.8786L10.4163 15.4966C9.66094 15.9772 8.4936 16.1489 4.78557 16.3206C0.768534 16.4579 0.116196 16.5609 0.0131947 17.0759C-0.12414 17.7283 0.734201 17.8656 6.22758 18.2089C9.62661 18.4149 11.618 19.0329 12.6136 20.2346C13.8153 21.6766 11.3433 23.5306 8.11593 23.5306C6.12458 23.5306 5.64391 23.771 5.95291 24.6293C6.12458 25.007 6.98292 25.11 9.83261 25.11C14.3646 25.0757 16.1843 25.3847 16.0127 26.2087C15.944 26.6207 15.326 26.8953 14.0213 27.17C12.7166 27.4103 12.0986 27.685 12.03 28.097C11.927 28.612 12.3046 28.6807 15.223 28.6807C18.313 28.6807 20.9567 29.0927 24.8021 30.26C27.0681 30.9124 28.4414 30.878 30.5701 30.0197C32.6988 29.1957 34.2781 27.8223 34.2781 26.8267C34.2781 25.5907 33.0765 24.08 31.0851 22.7066L29.1624 21.3676L27.5488 22.7066C24.5961 25.213 23.9094 25.3847 22.2957 24.0113C21.1284 23.05 20.9224 21.814 21.7464 21.1273C22.021 20.8869 22.2614 20.5093 22.2614 20.2346C22.2614 19.9943 22.4674 19.6509 22.7421 19.5136C22.9824 19.3763 23.3944 18.8956 23.6004 18.4493C24.0811 17.5566 24.1154 17.5909 21.6777 15.0159C19.755 12.9902 19.6177 11.3765 21.2657 9.96886C21.8837 9.48819 22.5704 9.14485 22.8451 9.24785C23.1197 9.38519 23.4631 9.45385 23.6004 9.45385C23.8751 9.45385 24.8021 10.2435 26.9994 12.3379L28.1324 13.4022L29.5744 11.8229C31.0508 10.1749 32.1151 9.45385 33.0421 9.45385C33.9005 9.45385 35.6515 11.1705 35.6515 12.0289C35.6515 12.8529 34.7932 14.7069 34.0035 15.5652C32.7331 16.9729 32.7675 17.3506 34.4498 18.9299C36.0635 20.4063 37.7115 21.0586 38.9819 20.6466C40.4239 20.1659 42.8616 15.4279 42.8616 13.0245C42.8616 10.3809 40.0119 6.70716 36.6472 4.95615C33.6601 3.44547 28.7161 2.62146 25.6947 3.1708Z" fill="#18232F"/>
<path d="M5.8155 7.53112C5.12883 8.35513 5.6095 9.17913 6.70817 9.0418C7.46351 8.97313 7.66951 8.76713 7.66951 8.08046C7.66951 7.05045 6.46784 6.70711 5.8155 7.53112Z" fill="#18232F"/>
<path d="M5.95288 20.7839C5.81555 21.0242 5.84988 21.3332 6.05588 21.5392C6.53656 22.0199 8.28757 21.5735 8.08157 21.0242C7.9099 20.4749 6.26189 20.3032 5.95288 20.7839Z" fill="#18232F"/>
<path d="M2.1418 24.0456C1.90147 24.6636 2.2448 25.2473 2.86281 25.2473C3.37781 25.2473 3.82415 24.3203 3.51515 23.8396C3.24048 23.359 2.3478 23.462 2.1418 24.0456Z" fill="#18232F"/>
</svg>
